# xmcd
#
# Track frame offsets:
#	150
#	26975
#	45150
#	64020
#	80707
#	98052
#	115912
#	140912
#	154075
#	176325
#	191700
#	208325
#	227587
#	241650
#	258075
#
# Disc length: 3660 seconds
#
# Revision: 21
# Processed by: cddbd v1.5.2PL0 Copyright (c) Steve Scherf et al.
# Submitted via: audiograbber 1.83.01
#
DISCID=c90e4a0f
DTITLE=Various (+ track dates) - Greatest Love CD2
DYEAR=1986
DGENRE=Easy Listening
TTITLE0=10cc - I'm Not in Love (1975)
TTITLE1=Foreigner - I Want to Know What Love Is (1984)
TTITLE2=PhD - I Won't Let You Down (1981)
TTITLE3=Paul Young - Wherever I Lay My Hat (That's My Home) (1982
TTITLE4=Hot Chocolate - Emma (1974)
TTITLE5=Smokey Robinson - Being with You (1981)
TTITLE6=Spandau Ballet - True (1983)
TTITLE7=Percey Sledge - When a Man Loves a Woman (1966)
TTITLE8=Randy Crawford - One Day I'll Fly Away (1980)
TTITLE9=Minnie Riperton - Loving You (1974)
TTITLE10=Eric Clapton - Wonderful Tonight (1977)
TTITLE11=Dionne Warwick - Heartbreaker (1982)
TTITLE12=Alison Moyet - That Ole Devil Called Love (1985)
TTITLE13=Commodores - Three Times a Lady (1978)
TTITLE14=Tina Turner - Let's Stay Together (1983)
EXTD=Track dates supplied
EXTT0=The Greatest Love     Disc 2
EXTT1=The Greatest Love     Disc 2
EXTT2=The Greatest Love     Disc 2
EXTT3=The Greatest Love     Disc 2
EXTT4=The Greatest Love     Disc 2
EXTT5=The Greatest Love     Disc 2
EXTT6=The Greatest Love     Disc 2
EXTT7=The Greatest Love     Disc 2
EXTT8=The Greatest Love     Disc 2
EXTT9=The Greatest Love     Disc 2
EXTT10=The Greatest Love     Disc 2
EXTT11=The Greatest Love     Disc 2
EXTT12=The Greatest Love     Disc 2
EXTT13=The Greatest Love     Disc 2
EXTT14=The Greatest Love     Disc 2
PLAYORDER=
